<!DOCTYPE svg PUBLIC "-//W3C//DTD SVG 20010904//EN" "http://www.w3.org/TR/2001/REC-SVG-20010904/DTD/svg10.dtd">
<svg version="1.0" xmlns="http://www.w3.org/2000/svg" width="683px" height="678px" viewBox="0 0 6830 6780" preserveAspectRatio="xMidYMid meet">
<g id="layer101" fill="#000000" stroke="none">
</g>
<g id="layer102" fill="#204423" stroke="none">
<path d="M3135 6669 c-170 -17 -266 -32 -417 -65 -1222 -269 -2183 -1198 -2488 -2404 -72 -286 -100 -523 -102 -852 -3 -511 110 -990 343 -1458 311 -622 791 -1114 1409 -1443 352 -188 720 -302 1165 -363 197 -28 607 -25 815 4 491 70 897 213 1300 457 226 137 404 279 605 480 573 573 896 1272 965 2086 64 745 -139 1504 -567 2129 -358 522 -877 945 -1453 1183 -219 91 -550 186 -750 217 -245 37 -616 50 -825 29z m546 -299 c258 -26 451 -65 670 -135 1079 -347 1879 -1281 2058 -2405 35 -220 42 -530 17 -765 -97 -910 -586 -1708 -1356 -2214 -239 -157 -470 -264 -763 -355 -290 -90 -546 -128 -872 -128 -417 0 -744 61 -1130 214 -501 198 -1001 593 -1325 1048 -300 421 -485 908 -540 1415 -16 152 -14 498 5 660 65 560 268 1058 618 1515 123 160 394 426 565 553 525 392 1144 602 1783 606 92 1 213 -4 270 -9z"/>
<path d="M3790 2153 c-85 -19 -155 -35 -157 -36 -1 -2 9 -57 22 -122 32 -158 45 -359 34 -509 -5 -66 -7 -121 -6 -122 7 -8 188 -34 270 -40 109 -8 271 8 376 38 122 33 121 32 121 99 0 32 4 60 10 64 5 3 7 12 4 19 -3 7 7 81 21 163 14 83 25 158 25 166 0 24 -103 57 -195 64 l-81 6 -84 -92 c-47 -50 -90 -91 -97 -91 -21 0 -33 36 -33 97 0 32 -9 119 -20 193 -11 74 -20 136 -20 138 0 5 -44 -3 -190 -35z"/>
</g>
<g id="layer103" fill="#704b38" stroke="none">
<path d="M3395 4908 c-38 -11 -72 -22 -73 -23 -2 -2 30 -45 71 -97 314 -394 524 -836 592 -1247 27 -159 5 -173 -75 -52 -127 194 -279 370 -450 520 -118 104 -325 243 -464 312 -73 36 -106 58 -106 70 0 10 22 30 58 49 90 51 211 180 260 279 40 79 50 111 35 111 -3 0 -29 -17 -57 -38 -134 -102 -298 -177 -461 -212 -142 -31 -416 -38 -625 -16 -365 39 -528 39 -720 0 -95 -19 -220 -55 -220 -63 0 -3 42 -28 93 -55 403 -212 924 -574 1479 -1027 408 -333 681 -689 829 -1082 24 -65 36 -86 48 -83 9 2 86 19 171 37 85 18 157 34 159 35 6 5 -65 203 -111 311 -53 125 -162 321 -246 443 -241 351 -626 719 -1001 957 -102 64 -123 85 -104 104 22 22 297 -101 486 -219 330 -204 626 -504 852 -862 84 -133 205 -380 260 -527 23 -63 46 -115 51 -116 24 -4 150 330 198 525 57 231 74 531 40 723 -60 349 -285 735 -605 1039 -118 112 -260 226 -280 225 -8 0 -45 -10 -84 -21z"/>
</g>
<g id="layer104" fill="#ef371f" stroke="none">
<path d="M3800 5697 c-94 -24 -379 -32 -487 -15 -40 6 -75 9 -78 6 -3 -3 -1 -49 5 -104 6 -54 17 -180 25 -279 8 -99 18 -201 21 -227 l6 -46 77 -26 c43 -14 81 -26 85 -26 4 0 0 12 -7 28 -29 55 -46 140 -57 271 -12 147 -5 250 17 258 7 3 32 -8 54 -23 22 -16 47 -33 57 -39 10 -5 31 -20 48 -32 55 -39 194 -105 225 -107 28 -1 33 4 49 45 39 97 64 293 42 325 -5 7 -31 4 -82 -9z"/>
</g>
<g id="layer105" fill="#e2bf16" stroke="none">
<path d="M4633 1787 c-25 -31 -127 -237 -121 -242 6 -7 454 141 470 154 4 4 -3 19 -15 35 -21 26 -31 29 -137 41 -63 8 -131 17 -151 19 -23 4 -40 1 -46 -7z"/>
</g>


</svg>